#!OML:ASF H:\LiuWeirdWalks\Patient Classification 1\Patient 1\Session 1\male.ASF
:FULLY-SPECIFIED
:DEGREES
575
root 2.21211 17.9872 -9.09342 1.86258 11.4167 4.43554
lowerback 5.0124 2.81433 -6.45358
upperback 0.535904 3.38973 -0.0760364
thorax -2.62586 1.75803 3.28102
lowerneck -13.5123 -1.97272 3.03151
upperneck 22.0364 -1.87407 -6.49887
head 9.02817 -1.30855 -2.94965
rclavicle 3.30728e-014 9.93923e-016
rhumerus -32.1154 -13.8419 -74.0153
rradius 35.2032
rwrist -9.02658
rhand -16.0151 -3.22974
rfingers 7.12502
rthumb 10.1856 -32.9632
lclavicle 3.30728e-014 9.93923e-016
lhumerus -46.4323 4.32563 79.5711
lradius 30.1531
lwrist 9.15387
lhand -14.4484 1.25331
lfingers 7.12502
lthumb 11.6967 30.9068
rfemur -34.6192 -10.3087 8.61851
rtibia 26.4559
rfoot -6.74192 -24.432
rtoes -10.01
lfemur 1.97476 -3.63058 -29.552
ltibia 15.8918
lfoot -11.327 9.04521
ltoes -6.7119
576
root 2.20681 17.9916 -9.042 1.8858 11.5574 4.50239
lowerback 5.00316 2.80763 -6.52731
upperback 0.533309 3.37693 -0.0920977
thorax -2.62532 1.7524 3.30693
lowerneck -13.5433 -2.00328 3.00486
upperneck 22.0844 -1.91354 -6.47891
head 9.04897 -1.3274 -2.94467
rclavicle -1.12065e-014 -7.95139e-015
rhumerus -32.2404 -13.9384 -73.9684
rradius 35.097
rwrist -8.98969
rhand -15.9902 -3.28108
rfingers 7.12502
rthumb 10.2096 -33.0133
lclavicle -1.12065e-014 -7.95139e-015
lhumerus -46.5737 4.3988 79.5037
lradius 30.1173
lwrist 9.08447
lhand -14.4119 1.26133
lfingers 7.12502
lthumb 11.7319 30.9128
rfemur -34.9036 -10.0702 8.42482
rtibia 25.8055
rfoot -5.61559 -24.7332
rtoes -9.94625
lfemur 2.46714 -3.69523 -29.574
ltibia 15.2549
lfoot -11.1297 8.93405
ltoes -6.84641
577
root 2.20183 17.9949 -8.9894 1.89383 11.6848 4.57141
lowerback 5.01313 2.8057 -6.59463
upperback 0.528504 3.36923 -0.110229
thorax -2.63788 1.74966 3.3257
lowerneck -13.5283 -2.02842 3.00423
upperneck 22.0989 -1.94759 -6.47786
head 9.04924 -1.34298 -2.94806
rclavicle -7.35255e-014 1.39149e-014
rhumerus -32.3833 -14.03 -73.9187
rradius 34.9977
rwrist -8.94715
rhand -15.9637 -3.29818
rfingers 7.12502
rthumb 10.2352 -33.0292
lclavicle -7.35255e-014 1.39149e-014
lhumerus -46.7318 4.46037 79.4434
lradius 30.1072
lwrist 9.05085
lhand -14.3999 1.2502
lfingers 7.12502
lthumb 11.7435 30.901
rfemur -35.1756 -9.88722 8.25249
rtibia 25.2534
rfoot -4.52804 -24.9884
rtoes -9.87254
lfemur 2.9749 -3.75849 -29.6017
ltibia 14.6331
lfoot -10.9422 8.83751
ltoes -6.98518
578
root 2.19721 17.9975 -8.93548 1.89774 11.8093 4.65457
lowerback 5.01856 2.80698 -6.66802
upperback 0.526182 3.36577 -0.133251
thorax -2.64582 1.74888 3.3427
lowerneck -13.4867 -2.06316 2.97791
upperneck 22.0805 -1.99426 -6.45798
head 9.03317 -1.36423 -2.94051
rclavicle 1.01629e-014 1.2921e-014
rhumerus -32.5348 -14.1323 -73.8645
rradius 34.9052
rwrist -8.89902
rhand -15.9468 -3.29688
rfingers 7.12502
rthumb 10.2515 -33.0271
lclavicle 1.01629e-014 1.2921e-014
lhumerus -46.8994 4.49447 79.3993
lradius 30.1275
lwrist 9.06238
lhand -14.3899 1.22693
lfingers 7.12502
lthumb 11.7531 30.8772
rfemur -35.4416 -9.7742 8.09201
rtibia 24.804
rfoot -3.52004 -25.1868
rtoes -9.72479
lfemur 3.49508 -3.81829 -29.6451
ltibia 14.0158
lfoot -10.7635 8.73976
ltoes -7.11866
579
root 2.19229 17.9994 -8.88035 1.8926 11.934 4.72458
lowerback 5.03307 2.80821 -6.73076
upperback 0.518733 3.36205 -0.150262
thorax -2.6639 1.74832 3.35943
lowerneck -13.4443 -2.09895 2.95153
upperneck 22.057 -2.04132 -6.44366
head 9.01512 -1.38628 -2.93473
rclavicle -1.05604e-014 5.76476e-015
rhumerus -32.7062 -14.2237 -73.807
rradius 34.824
rwrist -8.83279
rhand -15.9476 -3.26767
rfingers 7.12502
rthumb 10.2507 -32.9979
lclavicle -1.05604e-014 5.76476e-015
lhumerus -47.0933 4.50158 79.3749
lradius 30.1876
lwrist 9.11914
lhand -14.3857 1.21017
lfingers 7.12502
lthumb 11.7572 30.8602
rfemur -35.6967 -9.70041 7.96384
rtibia 24.4565
rfoot -2.59948 -25.3442
rtoes -9.49885
lfemur 4.02756 -3.87569 -29.671
ltibia 13.3987
lfoot -10.5901 8.63447
ltoes -7.24822
580
root 2.18752 18.0003 -8.8241 1.88265 12.0622 4.80387
lowerback 5.05219 2.80607 -6.79395
upperback 0.515604 3.35355 -0.169047
thorax -2.67945 1.7452 3.37489
lowerneck -13.4231 -2.13747 2.90499
upperneck 22.0289 -2.09137 -6.41558
head 8.99984 -1.41022 -2.92146
rclavicle 7.0817e-015 1.19271e-015
rhumerus -32.8681 -14.3156 -73.7489
rradius 34.7356
rwrist -8.76171
rhand -15.944 -3.22523
rfingers 7.12502
rthumb 10.2541 -32.9553
lclavicle 7.0817e-015 1.19271e-015
lhumerus -47.2764 4.52181 79.3589
lradius 30.2579
lwrist 9.17564
lhand -14.3963 1.21807
lfingers 7.12502
lthumb 11.7469 30.8687
rfemur -35.9421 -9.68611 7.85012
rtibia 24.2053
rfoot -1.72301 -25.441
rtoes -9.24427
lfemur 4.56798 -3.92653 -29.7044
ltibia 12.7909
lfoot -10.4276 8.51687
ltoes -7.37954
581
root 2.18281 18.0006 -8.76695 1.86811 12.1922 4.87619
lowerback 5.07258 2.80056 -6.84457
upperback 0.516203 3.34133 -0.186157
thorax -2.69079 1.73989 3.38547
lowerneck -13.4223 -2.17099 2.87556
upperneck 21.9858 -2.13524 -6.40586
head 8.98311 -1.43213 -2.91671
rclavicle -3.37188e-014 9.93923e-015
rhumerus -33.0256 -14.4013 -73.6936
rradius 34.6475
rwrist -8.68763
rhand -15.9317 -3.16815
rfingers 7.12502
rthumb 10.266 -32.8976
lclavicle -3.37188e-014 9.93923e-015
lhumerus -47.4531 4.54155 79.3516
lradius 30.347
lwrist 9.26087
lhand -14.4001 1.22906
lfingers 7.12502
lthumb 11.7433 30.8799
rfemur -36.1743 -9.72643 7.7696
rtibia 24.0371
rfoot -0.897868 -25.4745
rtoes -8.96199
lfemur 5.10273 -3.97961 -29.7294
ltibia 12.2102
lfoot -10.2742 8.4011
ltoes -7.51667
582
root 2.17781 18 -8.70931 1.85457 12.3135 4.94054
lowerback 5.08407 2.79516 -6.88826
upperback 0.524648 3.33081 -0.197852
thorax -2.68908 1.73482 3.39832
lowerneck -13.4503 -2.19141 2.88511
upperneck 21.9327 -2.16126 -6.43755
head 8.96802 -1.44727 -2.93111
rclavicle 6.93013e-014 -1.72943e-014
rhumerus -33.1674 -14.4755 -73.6408
rradius 34.5516
rwrist -8.5916
rhand -15.9389 -3.09754
rfingers 7.12502
rthumb 10.2591 -32.8273
lclavicle 6.93013e-014 -1.72943e-014
lhumerus -47.6021 4.57932 79.3525
lradius 30.4349
lwrist 9.33503
lhand -14.4166 1.23614
lfingers 7.12502
lthumb 11.7274 30.8879
rfemur -36.4028 -9.80189 7.72323
rtibia 23.9455
rfoot -0.095505 -25.45
rtoes -8.68753
lfemur 5.61716 -4.03245 -29.7448
ltibia 11.666
lfoot -10.1293 8.29418
ltoes -7.6668
583
root 2.17244 17.9988 -8.65123 1.84015 12.4178 4.9826
lowerback 5.0917 2.79231 -6.90925
upperback 0.538757 3.32566 -0.203238
thorax -2.67899 1.73181 3.40494
lowerneck -13.4903 -2.20861 2.89845
upperneck 21.8851 -2.18346 -6.4703
head 8.95719 -1.46058 -2.94651
rclavicle -1.21756e-014 7.95139e-015
rhumerus -33.2932 -14.5501 -73.5906
rradius 34.4505
rwrist -8.47958
rhand -15.9453 -3.01823
rfingers 7.12502
rthumb 10.2529 -32.7483
lclavicle -1.21756e-014 7.95139e-015
lhumerus -47.7349 4.61078 79.3681
lradius 30.5373
lwrist 9.41139
lhand -14.4428 1.22231
lfingers 7.12502
lthumb 11.7021 30.8755
rfemur -36.629 -9.89844 7.7269
rtibia 23.9214
rfoot 0.725926 -25.3641
rtoes -8.43146
lfemur 6.10336 -4.07631 -29.7345
ltibia 11.1678
lfoot -9.99862 8.20306
ltoes -7.83346
584
root 2.16672 17.997 -8.59247 1.82664 12.507 5.00716
lowerback 5.08909 2.79377 -6.9162
upperback 0.555086 3.32809 -0.204304
thorax -2.66114 1.73216 3.4081
lowerneck -13.5382 -2.22951 2.90574
upperneck 21.8473 -2.21084 -6.49604
head 8.95112 -1.47618 -2.9595
rclavicle 1.18177e-013 -1.31198e-014
rhumerus -33.4243 -14.6221 -73.5425
rradius 34.3582
rwrist -8.35546
rhand -15.9727 -2.9202
rfingers 7.12502
rthumb 10.2265 -32.6516
lclavicle 1.18177e-013 -1.31198e-014
lhumerus -47.8576 4.6296 79.393
lradius 30.6495
lwrist 9.49008
lhand -14.4663 1.1799
lfingers 7.12502
lthumb 11.6794 30.8344
rfemur -36.8517 -10.0129 7.7724
rtibia 23.9627
rfoot 1.54922 -25.2142
rtoes -8.20095
lfemur 6.55986 -4.10564 -29.7022
ltibia 10.7169
lfoot -9.88749 8.12064
ltoes -8.00626
585
root 2.16052 17.9943 -8.53246 1.80618 12.572 5.02087
lowerback 5.08819 2.80271 -6.91448
upperback 0.572162 3.34083 -0.205801
thorax -2.64411 1.73755 3.40502
lowerneck -13.5655 -2.25518 2.90616
upperneck 21.8217 -2.24715 -6.50115
head 8.94533 -1.49404 -2.96515
rclavicle -9.91439e-015 -1.76918e-014
rhumerus -33.5588 -14.6921 -73.4996
rradius 34.2688
rwrist -8.22708
rhand -16.0189 -2.79852
rfingers 7.12502
rthumb 10.1819 -32.5321
lclavicle -9.91439e-015 -1.76918e-014
lhumerus -47.9811 4.63508 79.4234
lradius 30.7778
lwrist 9.56962
lhand -14.4948 1.12146
lfingers 7.12502
lthumb 11.6519 30.7775
rfemur -37.0598 -10.1267 7.84588
rtibia 24.0664
rfoot 2.38057 -24.9903
rtoes -7.98648
lfemur 7.00192 -4.12782 -29.6588
ltibia 10.3085
lfoot -9.79809 8.06377
ltoes -8.16745
586
root 2.15382 17.991 -8.47174 1.79558 12.6358 5.04701
lowerback 5.08722 2.80971 -6.92996
upperback 0.581613 3.34969 -0.208038
thorax -2.63548 1.74163 3.41088
lowerneck -13.536 -2.28244 2.88731
upperneck 21.7854 -2.28655 -6.48
head 8.92581 -1.51137 -2.9573
rclavicle 1.52567e-014 5.36719e-015
rhumerus -33.6925 -14.7556 -73.4539
rradius 34.1826
rwrist -8.12309
rhand -16.0584 -2.70354
rfingers 7.12502
rthumb 10.1438 -32.439
lclavicle 1.52567e-014 5.36719e-015
lhumerus -48.1178 4.61874 79.4723
lradius 30.9309
lwrist 9.67758
lhand -14.5083 1.06
lfingers 7.12502
lthumb 11.6389 30.7167
rfemur -37.2617 -10.258 7.91813
rtibia 24.2345
rfoot 3.19098 -24.6959
rtoes -7.77738
lfemur 7.42218 -4.27745 -29.643
ltibia 9.93338
lfoot -9.68238 8.13405
ltoes -8.31484
587
root 2.14662 17.9869 -8.4097 1.78131 12.696 5.06668
lowerback 5.08444 2.81526 -6.94408
upperback 0.58666 3.35675 -0.207661
thorax -2.63031 1.74502 3.4188
lowerneck -13.4814 -2.29792 2.89922
upperneck 21.7155 -2.31385 -6.47533
head 8.89002 -1.52198 -2.95739
rclavicle -8.29926e-015 1.88845e-014
rhumerus -33.8278 -14.803 -73.4092
rradius 34.1015
rwrist -8.04138
rhand -16.1113 -2.63493
rfingers 7.12502
rthumb 10.0928 -32.3729
lclavicle -8.29926e-015 1.88845e-014
lhumerus -48.274 4.57569 79.5421
lradius 31.1154
lwrist 9.7988
lhand -14.5129 1.03345
lfingers 7.12502
lthumb 11.6345 30.6904
rfemur -37.4449 -10.3903 8.00191
rtibia 24.4681
rfoot 3.97534 -24.3283
rtoes -7.60823
lfemur 7.83912 -4.42316 -29.6198
ltibia 9.58108
lfoot -9.5839 8.21265
ltoes -8.4535
